<?xml version="1.0" standalone="no"?>
<!DOCTYPE svg PUBLIC "-//W3C//DTD SVG 20010904//EN"
 "http://www.w3.org/TR/2001/REC-SVG-20010904/DTD/svg10.dtd">
<svg version="1.0" xmlns="http://www.w3.org/2000/svg"
 width="700.000000pt" height="700.000000pt" viewBox="0 0 700.000000 700.000000"
 preserveAspectRatio="xMidYMid meet">
<metadata>
Created by potrace 1.14, written by Peter Selinger 2001-2017
</metadata>
<g transform="translate(0.000000,700.000000) scale(0.100000,-0.100000)"
fill="#000000" stroke="none">
<path d="M1140 6984 c-285 -49 -535 -173 -727 -362 -96 -95 -121 -126 -188
-227 -146 -222 -215 -441 -220 -700 -4 -220 18 -354 91 -537 49 -124 116 -239
204 -352 67 -86 250 -246 350 -305 134 -79 303 -144 435 -167 17 -3 50 -9 74
-14 100 -18 309 -12 456 14 60 11 160 42 234 73 227 93 410 231 556 418 122
156 201 321 252 525 23 93 26 126 27 285 1 179 -2 212 -30 335 -65 286 -244
561 -486 749 -142 111 -361 215 -514 245 -11 2 -30 7 -44 10 -66 15 -96 18
-240 21 -95 1 -184 -3 -230 -11z m410 -163 c25 -5 56 -12 70 -14 48 -9 181
-57 249 -91 112 -55 221 -134 316 -230 452 -454 460 -1179 18 -1646 -172 -181
-382 -297 -638 -349 -104 -22 -355 -23 -440 -2 -27 7 -59 14 -70 17 -124 25
-348 136 -445 220 -188 163 -293 306 -369 502 -49 127 -72 250 -75 394 -5 228
28 374 129 573 155 305 432 523 770 609 33 8 85 18 115 22 30 3 57 8 59 10 7
7 269 -5 311 -15z"/>
<path d="M5480 6990 c-25 -4 -61 -10 -80 -14 -119 -20 -307 -90 -419 -158 -34
-21 -65 -38 -67 -38 -3 0 -10 -4 -17 -10 -7 -5 -39 -31 -72 -57 -242 -189
-414 -461 -486 -770 -27 -117 -34 -391 -13 -508 36 -200 108 -381 215 -538 57
-83 73 -102 174 -202 199 -199 450 -325 740 -373 85 -14 377 -7 463 12 543
117 942 517 1058 1061 22 105 27 341 8 460 -36 233 -149 485 -295 660 -50 59
-180 184 -211 203 -16 9 -28 20 -28 24 0 4 -6 8 -14 8 -8 0 -16 3 -18 8 -13
30 -288 166 -378 187 -8 2 -44 10 -80 19 -36 8 -81 17 -100 21 -54 10 -329 13
-380 5z"/>
<path d="M1328 2695 c-1 -1 -41 -5 -88 -8 -163 -11 -331 -57 -488 -134 -386
-188 -667 -571 -736 -1002 -16 -96 -14 -346 3 -431 5 -30 13 -68 16 -85 9 -46
53 -173 81 -235 37 -82 51 -106 120 -210 175 -264 450 -459 769 -545 182 -49
399 -57 601 -21 65 12 212 58 279 89 405 183 687 531 781 967 23 105 27 422 6
510 -73 306 -182 510 -371 701 -125 125 -241 208 -381 272 -105 48 -228 89
-310 104 -14 2 -36 6 -50 9 -14 2 -65 7 -115 10 -49 3 -95 7 -102 9 -6 2 -13
2 -15 0z"/>
<path d="M5490 2683 c-168 -25 -296 -65 -440 -137 -145 -73 -228 -133 -345
-251 -139 -138 -247 -302 -309 -467 -32 -88 -73 -256 -81 -338 -7 -77 -7 -254
0 -290 3 -14 8 -47 11 -75 21 -172 119 -404 242 -573 209 -287 543 -488 897
-539 90 -13 355 -7 441 10 554 109 977 544 1074 1102 20 111 21 364 2 445 -6
25 -13 59 -16 76 -27 154 -147 402 -264 544 -213 260 -496 426 -828 484 -71
13 -320 18 -384 9z"/>
</g>
</svg>
