<?xml version="1.0" standalone="no"?>
<!DOCTYPE svg PUBLIC "-//W3C//DTD SVG 20010904//EN"
 "http://www.w3.org/TR/2001/REC-SVG-20010904/DTD/svg10.dtd">
<svg version="1.0" xmlns="http://www.w3.org/2000/svg"
 width="469.000000pt" height="469.000000pt" viewBox="0 0 469.000000 469.000000"
 preserveAspectRatio="xMidYMid meet">
<metadata>
Created by potrace 1.14, written by Peter Selinger 2001-2017
</metadata>
<g transform="translate(0.000000,469.000000) scale(0.100000,-0.100000)"
fill="#000000" stroke="none">
<path d="M2158 4685 c-2 -1 -34 -6 -73 -10 -125 -12 -327 -56 -463 -100 -142
-47 -332 -127 -371 -157 -13 -10 -28 -18 -32 -18 -15 0 -183 -107 -269 -171
-162 -120 -277 -231 -450 -435 -63 -74 -197 -291 -260 -418 -100 -206 -176
-438 -205 -631 -3 -16 -7 -41 -10 -55 -26 -129 -27 -511 -1 -680 66 -438 253
-855 530 -1180 38 -44 243 -248 276 -275 14 -11 46 -37 71 -57 93 -76 278
-192 414 -258 159 -79 404 -165 525 -185 19 -3 42 -8 50 -10 21 -6 68 -14 115
-20 22 -3 56 -8 75 -11 65 -10 414 -12 500 -3 47 5 123 17 170 25 47 9 96 18
110 20 14 3 41 9 60 14 19 5 40 10 45 11 25 5 237 80 304 108 423 178 813 514
1071 924 133 213 269 554 305 768 3 19 10 59 15 89 19 110 24 189 25 370 0
161 -10 333 -20 350 -1 3 -6 27 -9 54 -31 227 -150 552 -289 788 -112 190
-207 310 -381 483 -365 362 -798 575 -1336 656 -66 10 -483 22 -492 14z"/>
</g>
</svg>
