<svg width="206" height="214" viewBox="0 0 206 214" fill="none" xmlns="http://www.w3.org/2000/svg">
<path d="M41.5 108.5L42.5 196C78 228.5 150 209 157 195L153.5 88.5C162.7 80.5 179.333 63.5 186.5 56C208.1 37.6 206.833 25.3333 203.5 21.5C207.9 14.3 204 8.16667 201.5 6C193.5 -3.6 174.5 0.666672 166 4.00001C158 -3.19999 144.667 2.66667 139 6.50001L57.5 49C49.0897 43.281 31.8378 35.0392 21.5087 30.5804C18.2386 29.1688 14.649 28.7244 11.1131 29.153L10.7661 29.195C4.74055 29.9254 0.352756 35.2622 0.80113 41.3153C0.929769 43.0519 1.65278 44.6912 2.84846 45.9572L18 62C36.8 78.8 41.5 100 41.5 108.5Z" fill="#FBD1AF"/>
<path d="M119.5 29C121.52 28.7929 124.621 28.811 128.5 29.2944M162.5 42C161.16 41.1446 159.825 40.3417 158.5 39.5884M158.5 39.5884C170.833 29.7256 196.6 12.3 203 21.5M158.5 39.5884C153.097 36.5174 147.848 34.2709 143 32.6526M143 32.6526C158.5 21.2684 190 2 197 3.00001M143 32.6526C137.539 30.8296 132.587 29.8037 128.5 29.2944M128.5 29.2944C139.833 20.8629 160.7 6.10001 165.5 4.50001" stroke="#F5B99B" stroke-linecap="round" stroke-linejoin="round"/>
<path d="M84 51C84 51 108.5 47 113.5 69.5M88.5 100H97" stroke="#F5B99B" stroke-width="2" stroke-linecap="round" stroke-linejoin="round"/>
</svg>
