<svg width="210" height="361" viewBox="0 0 210 361" fill="none" xmlns="http://www.w3.org/2000/svg">
<path d="M132.001 2V6" stroke="#FFCE02" stroke-width="3" stroke-linecap="round"/>
<path d="M133 6.03925H136" stroke="#FFCE02" stroke-width="3" stroke-linecap="round"/>
<path d="M128 6.03925H131" stroke="#FFCE02" stroke-width="3" stroke-linecap="round"/>
<path d="M132.001 7V10" stroke="#FFCE02" stroke-width="3" stroke-linecap="round"/>
<path d="M176.001 6V10" stroke="#F0F0F0" stroke-width="3" stroke-linecap="round"/>
<path d="M180 14.0392H183" stroke="#F0F0F0" stroke-width="3" stroke-linecap="round"/>
<path d="M170 14.0392H173" stroke="#F0F0F0" stroke-width="3" stroke-linecap="round"/>
<path d="M176.001 17V20" stroke="#F0F0F0" stroke-width="3" stroke-linecap="round"/>
<path d="M188.001 30V34" stroke="#F497A4" stroke-width="3" stroke-linecap="round"/>
<path d="M189 34.0392H192" stroke="#F497A4" stroke-width="3" stroke-linecap="round"/>
<path d="M184 34.0392H187" stroke="#F497A4" stroke-width="3" stroke-linecap="round"/>
<path d="M188.001 35V38" stroke="#F497A4" stroke-width="3" stroke-linecap="round"/>
<path d="M6.00051 31V35" stroke="#EDF0EF" stroke-width="3" stroke-linecap="round"/>
<path d="M7 35.0392H10" stroke="#EDF0EF" stroke-width="3" stroke-linecap="round"/>
<path d="M2 35.0392H5" stroke="#EDF0EF" stroke-width="3" stroke-linecap="round"/>
<path d="M6.00051 36V39" stroke="#EDF0EF" stroke-width="3" stroke-linecap="round"/>
<path d="M30 8V12" stroke="#94DAE0" stroke-width="3" stroke-linecap="round"/>
<path d="M32.9995 15.0392H35.9995" stroke="#94DAE0" stroke-width="3" stroke-linecap="round"/>
<path d="M23.9995 15.0392H26.9995" stroke="#94DAE0" stroke-width="3" stroke-linecap="round"/>
<path d="M30 18V21" stroke="#94DAE0" stroke-width="3" stroke-linecap="round"/>
<path d="M12.899 297.942C13.5165 287.599 22.1138 279.546 32.4742 279.604L172.401 280.392C183.013 280.452 191.629 288.986 191.789 299.597L192 313.5V327C192 337.77 183.27 346.5 172.5 346.5H30.6989C19.4724 346.5 10.5645 337.044 11.2336 325.838L12.899 297.942Z" fill="#D9D9D9"/>
<path d="M42.702 305.606C41 308.5 41 311 41.614 314.116C48.3395 336.643 113.518 346.154 148.926 329.734C160.201 324.528 166.874 316.509 164.5 309C164 305.5 160.699 302.391 160 302.5C160 302.5 160 306.5 160.201 310.612C160.596 318.121 160.596 318.121 156.937 321.525C145.464 332.538 115.694 338.445 88.1981 335.041C71.2854 332.938 55.7574 327.432 49.4275 321.224C46.856 318.821 46 316.81 46 308.5C46 303.694 46 301 46 301C45.5055 301 43.8888 303.103 42.702 305.606Z" fill="black"/>
<path d="M30.1883 274.005C25.3434 274.507 20.0947 275.512 18.3788 276.416C14.947 278.224 10.4048 283.248 8.89079 286.965C5.45896 295.505 3.74305 330.871 6.06458 344.836C6.87207 349.759 7.67956 351.467 10.5058 354.079C12.4236 355.787 15.6535 357.797 17.8741 358.399C24.0312 360.308 124.059 361.815 155.45 360.509C169.581 359.907 182.905 359.002 184.924 358.399C193.705 355.888 197.137 349.96 198.853 334.789C202.083 305.854 198.348 283.65 189.466 278.124C185.226 275.512 174.368 273.5 167 273.5C163.776 273.5 160 273.5 160 273.5V277V281C160 281 164.292 281 168.5 281C190.029 284.67 191 288 192 315.5C191.193 335.092 191 338.5 182.703 342.425C178.161 344.133 51.6878 345.037 32.9136 343.429C19.3882 342.224 16.8648 341.219 13.9376 335.191C11.4142 330.268 11.5 316.5 12.1208 304.548C15 285 18.5 281.5 36 280C41.9488 280 160 281 160 281V277V273.5C160 273.5 36 273.5 30.1883 274.005Z" fill="#194E66"/>
<path d="M42.3194 354.5H35.1213C34.7235 354.5 34.342 354.658 34.0607 354.939C33.4749 355.525 33.4749 356.475 34.0607 357.061C34.342 357.342 34.7235 357.5 35.1213 357.5H41.9296C42.5983 357.5 43.2228 357.166 43.5937 356.609L43.7778 356.333C43.918 356.123 43.9533 355.86 43.8733 355.62C43.6504 354.951 43.0244 354.5 42.3194 354.5Z" fill="#053044"/>
<path d="M62.1779 355H49.7612C49.472 355 49.189 355.084 48.9463 355.241C48.0328 355.832 48.0328 357.168 48.9463 357.759C49.189 357.916 49.472 358 49.7612 358H61.6435C62.1636 358 62.6633 357.797 63.0365 357.435L63.5422 356.944C63.8141 356.68 63.8814 356.27 63.7078 355.933C63.4127 355.36 62.8223 355 62.1779 355Z" fill="#053044"/>
<path d="M35 351.5C22.6 351.9 15.8333 349.667 14 348.5L11.7167 346.673C11.5752 346.56 11.4695 346.409 11.4123 346.237C11.2094 345.628 11.6623 345 12.3037 345H12.3944C12.7893 345 13.1753 345.117 13.5038 345.336L16 347C20.8 349.4 26 349 35.5 349L76.4234 349.499C76.4744 349.5 76.505 349.501 76.5555 349.508C80.0758 349.997 130.975 349.832 156.374 349.502C156.46 349.501 156.538 349.511 156.622 349.526C158.569 349.874 168.613 349.326 173.5 349C176.333 348.667 182.4 347.8 184 347C185.6 346.2 186.333 346.333 186.5 346.5C186.833 346.833 187.3 347.7 186.5 348.5C185.7 349.3 183.5 349.833 182.5 350C172.1 351.2 163.167 351.833 160 352C142 353.2 96.8333 352.5 76.5 352L35 351.5Z" fill="#053044"/>
<path d="M45.5 231.5L46.5 319C82 351.5 154 332 161 318L157.5 211.5C166.7 203.5 183.333 186.5 190.5 179C212.1 160.6 210.833 148.333 207.5 144.5C211.9 137.3 208 131.167 205.5 129C197.5 119.4 178.5 123.667 170 127C162 119.8 148.667 125.667 143 129.5L61.5 172C53.0897 166.281 35.8378 158.039 25.5087 153.58C22.2386 152.169 18.649 151.724 15.1131 152.153L14.7661 152.195C8.74055 152.925 4.35276 158.262 4.80113 164.315C4.92977 166.052 5.65278 167.691 6.84846 168.957L22 185C40.8 201.8 45.5 223 45.5 231.5Z" fill="#FBD1AF"/>
<path d="M123.5 152C125.52 151.793 128.621 151.811 132.5 152.294M166.5 165C165.16 164.145 163.825 163.342 162.5 162.588M162.5 162.588C174.833 152.726 200.6 135.3 207 144.5M162.5 162.588C157.097 159.517 151.848 157.271 147 155.653M147 155.653C162.5 144.268 194 125 201 126M147 155.653C141.539 153.83 136.587 152.804 132.5 152.294M132.5 152.294C143.833 143.863 164.7 129.1 169.5 127.5" stroke="#F5B99B" stroke-linecap="round" stroke-linejoin="round"/>
<path d="M88 174C88 174 112.5 170 117.5 192.5M92.5 223H101" stroke="#F5B99B" stroke-width="2" stroke-linecap="round" stroke-linejoin="round"/>
<rect x="25" y="33.4919" width="148.83" height="106.29" rx="9" transform="rotate(-2.5 25 33.4919)" fill="white"/>
<circle cx="152.219" cy="35.5086" r="1.5" fill="#469F8C"/>
<circle cx="159.34" cy="35.1977" r="1.5" fill="#EDDE75"/>
<circle cx="166.461" cy="34.8867" r="1.5" fill="#B07363"/>
<path d="M143.652 92.1667C143.474 91.265 144.505 90.621 145.237 91.1762L151.467 95.8982C152.025 96.3213 151.987 97.1721 151.393 97.5432L146.676 100.49C146.082 100.861 145.301 100.523 145.165 99.8359L143.652 92.1667Z" fill="#030003"/>
<rect x="148.828" y="96.9168" width="6" height="2" transform="rotate(56.5 148.828 96.9168)" fill="#030003"/>
</svg>
