<svg id="eoMHIakBATc1" xmlns="http://www.w3.org/2000/svg" xmlns:xlink="http://www.w3.org/1999/xlink"
	viewBox="0 0 209 361" shape-rendering="geometricPrecision" text-rendering="geometricPrecision">
	<style><![CDATA[
#eoMHIakBATc4_ts {animation: eoMHIakBATc4_ts__ts 3000ms linear 1 normal forwards}@keyframes eoMHIakBATc4_ts__ts { 0% {transform: translate(103px,311.5px) scale(0,0)} 16.666667% {transform: translate(103px,311.5px) scale(0,0);animation-timing-function: cubic-bezier(0.7,-0.55,0.3,1.7)} 33.333333% {transform: translate(103px,311.5px) scale(1,1)} 100% {transform: translate(103px,311.5px) scale(1,1)}} #eoMHIakBATc9_to {animation: eoMHIakBATc9_to__to 3000ms linear 1 normal forwards}@keyframes eoMHIakBATc9_to__to { 0% {transform: translate(106.64px,311.500001px)} 26.666667% {transform: translate(106.64px,311.500001px);animation-timing-function: cubic-bezier(0.25,1,0.25,1)} 43.333333% {transform: translate(106.63829px,227.95px)} 100% {transform: translate(106.63829px,227.95px)}} #eoMHIakBATc9_ts {animation: eoMHIakBATc9_ts__ts 3000ms linear 1 normal forwards}@keyframes eoMHIakBATc9_ts__ts { 0% {transform: scale(0,0)} 26.666667% {transform: scale(0,0);animation-timing-function: cubic-bezier(0.3,1.05,0.3,1.05)} 43.333333% {transform: scale(1,1)} 100% {transform: scale(1,1)}} #eoMHIakBATc13_to {animation: eoMHIakBATc13_to__to 3000ms linear 1 normal forwards}@keyframes eoMHIakBATc13_to__to { 0% {transform: translate(101.662332px,313.05184px)} 30% {transform: translate(101.662332px,313.05184px);animation-timing-function: cubic-bezier(0.175,0.885,0.32,1.275)} 56.666667% {transform: translate(97.655401px,89.674508px)} 100% {transform: translate(97.655401px,89.674508px)}} #eoMHIakBATc13_ts {animation: eoMHIakBATc13_ts__ts 3000ms linear 1 normal forwards}@keyframes eoMHIakBATc13_ts__ts { 0% {transform: scale(0,0)} 30% {transform: scale(0,0);animation-timing-function: cubic-bezier(0.25,1,0.25,1)} 56.666667% {transform: scale(1,1)} 100% {transform: scale(1,1)}} #eoMHIakBATc22_to {animation: eoMHIakBATc22_to__to 3000ms linear 1 normal forwards}@keyframes eoMHIakBATc22_to__to { 0% {offset-distance: 0%;animation-timing-function: cubic-bezier(0.25,1,0.25,1)} 16.666667% {offset-distance: 25.891651%;animation-timing-function: cubic-bezier(0.205,0.78,0.2,0.775)} 20% {offset-distance: 25.892081%;animation-timing-function: cubic-bezier(0.785,0.135,0.15,0.86)} 83.333333% {offset-distance: 100%} 100% {offset-distance: 100%}} #eoMHIakBATc26_to {animation: eoMHIakBATc26_to__to 3000ms linear 1 normal forwards}@keyframes eoMHIakBATc26_to__to { 0% {offset-distance: 0%} 83.333333% {offset-distance: 0%;animation-timing-function: cubic-bezier(0.25,1,0.25,1)} 100% {offset-distance: 100%}} #eoMHIakBATc26 {animation: eoMHIakBATc26_c_o 3000ms linear 1 normal forwards}@keyframes eoMHIakBATc26_c_o { 0% {opacity: 0} 83.333333% {opacity: 0} 90% {opacity: 1} 100% {opacity: 1}} #eoMHIakBATc31_to {animation: eoMHIakBATc31_to__to 3000ms linear 1 normal forwards}@keyframes eoMHIakBATc31_to__to { 0% {offset-distance: 0%} 83.333333% {offset-distance: 0%} 100% {offset-distance: 100%}} #eoMHIakBATc31 {animation: eoMHIakBATc31_c_o 3000ms linear 1 normal forwards}@keyframes eoMHIakBATc31_c_o { 0% {opacity: 0} 83.333333% {opacity: 0} 90% {opacity: 1} 100% {opacity: 1}} #eoMHIakBATc36_to {animation: eoMHIakBATc36_to__to 3000ms linear 1 normal forwards}@keyframes eoMHIakBATc36_to__to { 0% {offset-distance: 0%} 83.333333% {offset-distance: 0%} 100% {offset-distance: 100%}} #eoMHIakBATc36 {animation: eoMHIakBATc36_c_o 3000ms linear 1 normal forwards}@keyframes eoMHIakBATc36_c_o { 0% {opacity: 0} 83.333333% {opacity: 0} 90% {opacity: 1} 100% {opacity: 1}} #eoMHIakBATc41_to {animation: eoMHIakBATc41_to__to 3000ms linear 1 normal forwards}@keyframes eoMHIakBATc41_to__to { 0% {offset-distance: 0%} 83.333333% {offset-distance: 0%} 100% {offset-distance: 100%}} #eoMHIakBATc41 {animation: eoMHIakBATc41_c_o 3000ms linear 1 normal forwards}@keyframes eoMHIakBATc41_c_o { 0% {opacity: 0} 83.333333% {opacity: 0} 90% {opacity: 1} 100% {opacity: 1}} #eoMHIakBATc46_to {animation: eoMHIakBATc46_to__to 3000ms linear 1 normal forwards}@keyframes eoMHIakBATc46_to__to { 0% {offset-distance: 0%} 83.333333% {offset-distance: 0%;animation-timing-function: cubic-bezier(0.25,1,0.25,1)} 100% {offset-distance: 100%}} #eoMHIakBATc46 {animation: eoMHIakBATc46_c_o 3000ms linear 1 normal forwards}@keyframes eoMHIakBATc46_c_o { 0% {opacity: 0} 83.333333% {opacity: 0} 90% {opacity: 1} 100% {opacity: 1}}
]]></style>
	<g transform="translate(0 0.000001)">
		<path
			d="M12.899,297.942c.6175-10.343,9.2148-18.396,19.5752-18.338l139.9268.788c10.612.06,19.228,8.594,19.388,19.205L192,313.5v13.5c0,10.77-8.73,19.5-19.5,19.5h-141.8011c-11.2265,0-20.1344-9.456-19.4653-20.662l1.6654-27.896Z"
			fill="#d9d9d9" />
		<g id="eoMHIakBATc4_ts" transform="translate(103,311.5) scale(0,0)">
			<path
				d="M165,313.5c0,14.636-27.758,22.5-62,22.5-34.2417,0-62-7.864-62-22.5s27.7583-26.5,62-26.5c34.242,0,62,11.864,62,26.5Z"
				transform="translate(-103,-311.5)" fill="#030003" />
		</g>
		<path
			d="M30.1883,274.005c-4.8449.502-10.0936,1.507-11.8095,2.411-3.4318,1.808-7.974,6.832-9.48801,10.549-3.43183,8.54-5.14774,43.906-2.82621,57.871.80749,4.923,1.61498,6.631,4.44122,9.243c1.9178,1.708,5.1477,3.718,7.3683,4.32c6.1571,1.909,106.1849,3.416,137.5759,2.11c14.131-.602,27.455-1.507,29.474-2.11c8.781-2.511,12.213-8.439,13.929-23.61c3.23-28.935-.505-51.139-9.387-56.665-4.24-2.612-15.098-4.624-22.466-4.624-3.224,0-7,0-7,0v3.5v4c0,0,4.292,0,8.5,0c21.529,3.67,22.5,7,23.5,34.5-.807,19.592-1,23-9.297,26.925-4.542,1.708-131.0152,2.612-149.7894,1.004-13.5254-1.205-16.0488-2.21-18.976-8.238-2.5234-4.923-2.4376-18.691-1.8168-30.643C15,285,18.5,281.5,36,280c5.9488,0,124,1,124,1v-4-3.5c0,0-124,0-129.8117.505Z"
			fill="#194e66" />
		<path
			d="M42.3194,354.5h-7.1981c-.3978,0-.7793.158-1.0606.439-.5858.586-.5858,1.536,0,2.122.2813.281.6628.439,1.0606.439h6.8083c.6687,0,1.2932-.334,1.6641-.891l.1841-.276c.1402-.21.1755-.473.0955-.713-.2229-.669-.8489-1.12-1.5539-1.12Z"
			fill="#053044" />
		<path
			d="M62.1779,355h-12.4167c-.2892,0-.5722.084-.8149.241-.9135.591-.9135,1.927,0,2.518.2427.157.5257.241.8149.241h11.8823c.5201,0,1.0198-.203,1.393-.565l.5057-.491c.2719-.264.3392-.674.1656-1.011-.2951-.573-.8855-.933-1.5299-.933Z"
			fill="#053044" />
		<path
			d="M35,351.5c-12.4.4-19.1667-1.833-21-3l-2.2833-1.827c-.1415-.113-.2472-.264-.3044-.436-.2029-.609.25-1.237.8914-1.237h.0907c.3949,0,.7809.117,1.1094.336L16,347c4.8,2.4,10,2,19.5,2l40.9234.499c.051.001.0816.002.1321.009c3.5203.489,54.4195.324,79.8185-.006.086-.001.164.009.248.024c1.947.348,11.991-.2,16.878-.526c2.833-.333,8.9-1.2,10.5-2s2.333-.667,2.5-.5c.333.333.8,1.2,0,2s-3,1.333-4,1.5c-10.4,1.2-19.333,1.833-22.5,2-18,1.2-63.1667.5-83.5,0L35,351.5Z"
			fill="#053044" />
	</g>
	<g id="eoMHIakBATc9_to" transform="translate(106.64,311.500001)">
		<g id="eoMHIakBATc9_ts" transform="scale(0,0)">
			<g transform="translate(-106.131336,-228.432014)">
				<path
					d="M44.5,232.5l1,87.5C58,337,149,337,160,320l-3.5-107.5c9.2-8,25.833-25,33-32.5c21.6-18.4,20.333-30.667,17-34.5c4.4-7.2.5-13.333-2-15.5-8-9.6-27-5.333-35.5-2-8-7.2-21.333-1.333-27,2.5L60.5,173c-8.4103-5.719-25.6622-13.961-35.9913-18.42-3.2701-1.411-6.8597-1.856-10.3956-1.427l-.347.042c-6.02555.73-10.41334,6.067-9.96497,12.12.12864,1.737.85165,3.376,2.04733,4.642L21,186c18.8,16.8,23.5,38,23.5,46.5Z"
					fill="#fbd1af" />
				<path
					d="M122.5,153c2.02-.207,5.121-.189,9,.294M165.5,166c-1.34-.855-2.675-1.658-4-2.412m0,0c12.333-9.862,38.1-27.288,44.5-18.088m-44.5,18.088c-5.403-3.071-10.652-5.317-15.5-6.935m0,0C161.5,145.268,193,126,200,127m-54,29.653c-5.461-1.823-10.413-2.849-14.5-3.359m0,0c11.333-8.431,32.2-23.194,37-24.794"
					fill="none" stroke="#f5b99b" stroke-linecap="round" stroke-linejoin="round" />
				<path d="M87,175c0,0,24.5-4,29.5,18.5M91.5,224h8.5" fill="none" stroke="#f5b99b"
					stroke-width="2" stroke-linecap="round" stroke-linejoin="round" />
			</g>
		</g>
	</g>
	<g id="eoMHIakBATc13_to" transform="translate(101.662332,313.05184)">
		<g id="eoMHIakBATc13_ts" transform="scale(0,0)">
			<g transform="translate(-101.662323,-83.340384)" clip-path="url(#eoMHIakBATc20)">
				<g>
					<rect width="148.83" height="106.29" rx="9" ry="9"
						transform="matrix(.999048-.043619 0.043619 0.999048 24.999989 33.491909)"
						fill="#fff" />
					<circle r="1.5"
						transform="matrix(.999962-.008727 0.008727 0.999962 152.212016 35.646927)"
						fill="#469f8c" />
					<circle r="1.5"
						transform="matrix(.999962-.008727 0.008727 0.999962 159.330016 35.273923)"
						fill="#edde75" />
					<circle r="1.5"
						transform="matrix(.999962-.008727 0.008727 0.999962 166.449016 34.900819)"
						fill="#b07363" />
					<rect width="136.83" height="2" rx="1" ry="1"
						transform="matrix(.99863-.052336 0.052336 0.99863 31.619505 47.690295)"
						fill="#d9d9d9" />
				</g>
				<clipPath id="eoMHIakBATc20">
					<rect width="148.83" height="106.29" rx="9" ry="9"
						transform="matrix(.999048-.043619 0.043619 0.999048 24.999989 33.491909)"
						fill="#fff" />
				</clipPath>
			</g>
		</g>
	</g>
	<g id="eoMHIakBATc22_to"
		style="offset-path:path('M176.006472,258.788666C148.446775,248.48514,103.431623,310.900435,103.000007,311.500001C103.001037,311.498568,103.000007,311.500001,103.000007,311.500001C69.440133,193.069893,274.690888,295.511816,135.413589,98.822096');offset-rotate:0deg">
		<g transform="translate(-147.885712,-96.996898)">
			<path
				d="M143.652,92.1667c-.178-.9017.853-1.5457,1.585-.9905l6.23,4.722c.558.4231.52,1.2739-.074,1.645l-4.717,2.9468c-.594.371-1.375.033-1.511-.6541l-1.513-7.6692Z"
				fill="#030003" />
			<rect width="6" height="2" rx="0" ry="0"
				transform="matrix(.551937 0.833886-.833886 0.551937 148.828117 96.916826)"
				fill="#030003" />
		</g>
	</g>
	<g>
		<g id="eoMHIakBATc26_to"
			style="offset-path:path('M87.506963,43.494087C112.265537,27.057285,162.369014,24.248067,188.001002,34');offset-rotate:0deg">
			<g id="eoMHIakBATc26" transform="translate(-188.000999,-34)" opacity="0">
				<path d="M188.001,30v4" fill="none" stroke="#f497a4" stroke-width="3"
					stroke-linecap="round" />
				<path d="M189,34.0392h3" fill="none" stroke="#f497a4" stroke-width="3"
					stroke-linecap="round" />
				<path d="M184,34.0392h3" fill="none" stroke="#f497a4" stroke-width="3"
					stroke-linecap="round" />
				<path d="M188.001,35v3" fill="none" stroke="#f497a4" stroke-width="3"
					stroke-linecap="round" />
			</g>
		</g>
		<g id="eoMHIakBATc31_to"
			style="offset-path:path('M87.506963,43.494087C108.417653,23.737963,152.563795,11.431581,176.001004,14.0392');offset-rotate:0deg">
			<g id="eoMHIakBATc31" transform="translate(-176.000998,-14.0392)" opacity="0">
				<path d="M176.001,7v4" fill="none" stroke="#f0f0f0" stroke-width="3"
					stroke-linecap="round" />
				<path d="M179,14h4" fill="none" stroke="#f0f0f0" stroke-width="3"
					stroke-linecap="round" />
				<path d="M169,14.0392h4" fill="none" stroke="#f0f0f0" stroke-width="3"
					stroke-linecap="round" />
				<path d="M176.001,17v4" fill="none" stroke="#f0f0f0" stroke-width="3"
					stroke-linecap="round" />
			</g>
		</g>
		<g id="eoMHIakBATc36_to"
			style="offset-path:path('M87.506966,43.494087C92.904855,26.787314,115.029734,7.907221,132.001004,6.03925');offset-rotate:0deg">
			<g id="eoMHIakBATc36" transform="translate(-132.000995,-6.03925)" opacity="0">
				<path d="M132.001,2v4" fill="none" stroke="#ffce02" stroke-width="3"
					stroke-linecap="round" />
				<path d="M133,6.03925h3" fill="none" stroke="#ffce02" stroke-width="3"
					stroke-linecap="round" />
				<path d="M128,6.03925h3" fill="none" stroke="#ffce02" stroke-width="3"
					stroke-linecap="round" />
				<path d="M132.001,7v3" fill="none" stroke="#ffce02" stroke-width="3"
					stroke-linecap="round" />
			</g>
		</g>
		<g id="eoMHIakBATc41_to"
			style="offset-path:path('M87.506963,43.494087C77.229666,25.872752,48.158597,12.598071,30.000001,15.0392');offset-rotate:0deg">
			<g id="eoMHIakBATc41" transform="translate(-29.999997,-15.0392)" opacity="0">
				<path d="M30,8v4" fill="none" stroke="#94dae0" stroke-width="3"
					stroke-linecap="round" />
				<path d="M32.9995,15.0392h4" fill="none" stroke="#94dae0" stroke-width="3"
					stroke-linecap="round" />
				<path d="M23,15.0392h4" fill="none" stroke="#94dae0" stroke-width="3"
					stroke-linecap="round" />
				<path d="M30,18v4" fill="none" stroke="#94dae0" stroke-width="3"
					stroke-linecap="round" />
			</g>
		</g>
		<g id="eoMHIakBATc46_to"
			style="offset-path:path('M87.506954,43.494085C70.208141,35.52725,30.639104,29.900326,6.000516,35.03921');offset-rotate:0deg">
			<g id="eoMHIakBATc46" transform="translate(-6.000501,-35.039198)" opacity="0">
				<path d="M6.00051,31v4" fill="none" stroke="#edf0ef" stroke-width="3"
					stroke-linecap="round" />
				<path d="M7,35.0392h3" fill="none" stroke="#edf0ef" stroke-width="3"
					stroke-linecap="round" />
				<path d="M2,35.0392h3" fill="none" stroke="#edf0ef" stroke-width="3"
					stroke-linecap="round" />
				<path d="M6.00051,36v3" fill="none" stroke="#edf0ef" stroke-width="3"
					stroke-linecap="round" />
			</g>
		</g>
	</g>
</svg>