<svg id="ev48kNm3zOb1" xmlns="http://www.w3.org/2000/svg" xmlns:xlink="http://www.w3.org/1999/xlink"
	viewBox="0 0 209 361" shape-rendering="geometricPrecision" text-rendering="geometricPrecision">
	<g transform="translate(0 0.000001)">
		<path
			d="M12.899,297.942c.6175-10.343,9.2148-18.396,19.5752-18.338l139.9268.788c10.612.06,19.228,8.594,19.388,19.205L192,313.5v13.5c0,10.77-8.73,19.5-19.5,19.5h-141.8011c-11.2265,0-20.1344-9.456-19.4653-20.662l1.6654-27.896Z"
			fill="#d9d9d9" />
		<path id="ev48kNm3zOb4"
			d="M165,313.5c0,14.636-27.758,22.5-62,22.5-34.2417,0-62-7.864-62-22.5s27.7583-26.5,62-26.5c34.242,0,62,11.864,62,26.5Z"
			transform="matrix(0 0 0 0 103 311.5)" fill="#030003" />
		<path
			d="M30.1883,274.005c-4.8449.502-10.0936,1.507-11.8095,2.411-3.4318,1.808-7.974,6.832-9.48801,10.549-3.43183,8.54-5.14774,43.906-2.82621,57.871.80749,4.923,1.61498,6.631,4.44122,9.243c1.9178,1.708,5.1477,3.718,7.3683,4.32c6.1571,1.909,106.1849,3.416,137.5759,2.11c14.131-.602,27.455-1.507,29.474-2.11c8.781-2.511,12.213-8.439,13.929-23.61c3.23-28.935-.505-51.139-9.387-56.665-4.24-2.612-15.098-4.624-22.466-4.624-3.224,0-7,0-7,0v3.5v4c0,0,4.292,0,8.5,0c21.529,3.67,22.5,7,23.5,34.5-.807,19.592-1,23-9.297,26.925-4.542,1.708-131.0152,2.612-149.7894,1.004-13.5254-1.205-16.0488-2.21-18.976-8.238-2.5234-4.923-2.4376-18.691-1.8168-30.643C15,285,18.5,281.5,36,280c5.9488,0,124,1,124,1v-4-3.5c0,0-124,0-129.8117.505Z"
			fill="#194e66" />
		<path
			d="M42.3194,354.5h-7.1981c-.3978,0-.7793.158-1.0606.439-.5858.586-.5858,1.536,0,2.122.2813.281.6628.439,1.0606.439h6.8083c.6687,0,1.2932-.334,1.6641-.891l.1841-.276c.1402-.21.1755-.473.0955-.713-.2229-.669-.8489-1.12-1.5539-1.12Z"
			fill="#053044" />
		<path
			d="M62.1779,355h-12.4167c-.2892,0-.5722.084-.8149.241-.9135.591-.9135,1.927,0,2.518.2427.157.5257.241.8149.241h11.8823c.5201,0,1.0198-.203,1.393-.565l.5057-.491c.2719-.264.3392-.674.1656-1.011-.2951-.573-.8855-.933-1.5299-.933Z"
			fill="#053044" />
		<path
			d="M35,351.5c-12.4.4-19.1667-1.833-21-3l-2.2833-1.827c-.1415-.113-.2472-.264-.3044-.436-.2029-.609.25-1.237.8914-1.237h.0907c.3949,0,.7809.117,1.1094.336L16,347c4.8,2.4,10,2,19.5,2l40.9234.499c.051.001.0816.002.1321.009c3.5203.489,54.4195.324,79.8185-.006.086-.001.164.009.248.024c1.947.348,11.991-.2,16.878-.526c2.833-.333,8.9-1.2,10.5-2s2.333-.667,2.5-.5c.333.333.8,1.2,0,2s-3,1.333-4,1.5c-10.4,1.2-19.333,1.833-22.5,2-18,1.2-63.1667.5-83.5,0L35,351.5Z"
			fill="#053044" />
	</g>
	<g id="ev48kNm3zOb9" transform="matrix(0 0 0 0 106.64 311.500001)">
		<path
			d="M44.5,232.5l1,87.5C58,337,149,337,160,320l-3.5-107.5c9.2-8,25.833-25,33-32.5c21.6-18.4,20.333-30.667,17-34.5c4.4-7.2.5-13.333-2-15.5-8-9.6-27-5.333-35.5-2-8-7.2-21.333-1.333-27,2.5L60.5,173c-8.4103-5.719-25.6622-13.961-35.9913-18.42-3.2701-1.411-6.8597-1.856-10.3956-1.427l-.347.042c-6.02555.73-10.41334,6.067-9.96497,12.12.12864,1.737.85165,3.376,2.04733,4.642L21,186c18.8,16.8,23.5,38,23.5,46.5Z"
			fill="#fbd1af" />
		<path
			d="M122.5,153c2.02-.207,5.121-.189,9,.294M165.5,166c-1.34-.855-2.675-1.658-4-2.412m0,0c12.333-9.862,38.1-27.288,44.5-18.088m-44.5,18.088c-5.403-3.071-10.652-5.317-15.5-6.935m0,0C161.5,145.268,193,126,200,127m-54,29.653c-5.461-1.823-10.413-2.849-14.5-3.359m0,0c11.333-8.431,32.2-23.194,37-24.794"
			fill="none" stroke="#f5b99b" stroke-linecap="round" stroke-linejoin="round" />
		<path d="M87,175c0,0,24.5-4,29.5,18.5M91.5,224h8.5" fill="none" stroke="#f5b99b"
			stroke-width="2" stroke-linecap="round" stroke-linejoin="round" />
	</g>
	<g id="ev48kNm3zOb13" transform="matrix(0 0 0 0 101.662332 313.05184)"
		clip-path="url(#ev48kNm3zOb20)">
		<g>
			<rect width="148.83" height="106.29" rx="9" ry="9"
				transform="matrix(.999048-.043619 0.043619 0.999048 24.999989 33.491909)"
				fill="#fff" />
			<circle r="1.5"
				transform="matrix(.999962-.008727 0.008727 0.999962 152.212016 35.646927)"
				fill="#469f8c" />
			<circle r="1.5"
				transform="matrix(.999962-.008727 0.008727 0.999962 159.330016 35.273923)"
				fill="#edde75" />
			<circle r="1.5"
				transform="matrix(.999962-.008727 0.008727 0.999962 166.449016 34.900819)"
				fill="#b07363" />
			<rect width="136.83" height="2" rx="1" ry="1"
				transform="matrix(.99863-.052336 0.052336 0.99863 31.619505 47.690295)"
				fill="#d9d9d9" />
		</g>
		<clipPath id="ev48kNm3zOb20">
			<rect width="148.83" height="106.29" rx="9" ry="9"
				transform="matrix(.999048-.043619 0.043619 0.999048 24.999989 33.491909)"
				fill="#fff" />
		</clipPath>
	</g>
	<g id="ev48kNm3zOb22" transform="translate(28.12076 161.791768)">
		<path
			d="M143.652,92.1667c-.178-.9017.853-1.5457,1.585-.9905l6.23,4.722c.558.4231.52,1.2739-.074,1.645l-4.717,2.9468c-.594.371-1.375.033-1.511-.6541l-1.513-7.6692Z"
			fill="#030003" />
		<rect width="6" height="2" rx="0" ry="0"
			transform="matrix(.551937 0.833886-.833886 0.551937 148.828117 96.916826)"
			fill="#030003" />
	</g>
	<g>
		<g id="ev48kNm3zOb26" transform="translate(-100.494036 9.494087)" opacity="0">
			<path d="M188.001,30v4" fill="none" stroke="#f497a4" stroke-width="3"
				stroke-linecap="round" />
			<path d="M189,34.0392h3" fill="none" stroke="#f497a4" stroke-width="3"
				stroke-linecap="round" />
			<path d="M184,34.0392h3" fill="none" stroke="#f497a4" stroke-width="3"
				stroke-linecap="round" />
			<path d="M188.001,35v3" fill="none" stroke="#f497a4" stroke-width="3"
				stroke-linecap="round" />
		</g>
		<g id="ev48kNm3zOb31" transform="translate(-88.494035 29.454887)" opacity="0">
			<path d="M176.001,7v4" fill="none" stroke="#f0f0f0" stroke-width="3"
				stroke-linecap="round" />
			<path d="M179,14h4" fill="none" stroke="#f0f0f0" stroke-width="3" stroke-linecap="round" />
			<path d="M169,14.0392h4" fill="none" stroke="#f0f0f0" stroke-width="3"
				stroke-linecap="round" />
			<path d="M176.001,17v4" fill="none" stroke="#f0f0f0" stroke-width="3"
				stroke-linecap="round" />
		</g>
		<g id="ev48kNm3zOb36" transform="translate(-44.494029 37.454837)" opacity="0">
			<path d="M132.001,2v4" fill="none" stroke="#ffce02" stroke-width="3"
				stroke-linecap="round" />
			<path d="M133,6.03925h3" fill="none" stroke="#ffce02" stroke-width="3"
				stroke-linecap="round" />
			<path d="M128,6.03925h3" fill="none" stroke="#ffce02" stroke-width="3"
				stroke-linecap="round" />
			<path d="M132.001,7v3" fill="none" stroke="#ffce02" stroke-width="3"
				stroke-linecap="round" />
		</g>
		<g id="ev48kNm3zOb41" transform="translate(57.506966 28.454887)" opacity="0">
			<path d="M30,8v4" fill="none" stroke="#94dae0" stroke-width="3" stroke-linecap="round" />
			<path d="M32.9995,15.0392h4" fill="none" stroke="#94dae0" stroke-width="3"
				stroke-linecap="round" />
			<path d="M23,15.0392h4" fill="none" stroke="#94dae0" stroke-width="3"
				stroke-linecap="round" />
			<path d="M30,18v4" fill="none" stroke="#94dae0" stroke-width="3" stroke-linecap="round" />
		</g>
		<g id="ev48kNm3zOb46" transform="translate(81.506453 8.454887)" opacity="0">
			<path d="M6.00051,31v4" fill="none" stroke="#edf0ef" stroke-width="3"
				stroke-linecap="round" />
			<path d="M7,35.0392h3" fill="none" stroke="#edf0ef" stroke-width="3"
				stroke-linecap="round" />
			<path d="M2,35.0392h3" fill="none" stroke="#edf0ef" stroke-width="3"
				stroke-linecap="round" />
			<path d="M6.00051,36v3" fill="none" stroke="#edf0ef" stroke-width="3"
				stroke-linecap="round" />
		</g>
	</g>
	<script><![CDATA[
(function(s,i,u,o,c,w,d,t,n,x,e,p,a,b){w[o]=w[o]||{};w[o][s]=w[o][s]||[];w[o][s].push(i);e=d.createElementNS(n,t);e.async=true;e.setAttributeNS(x,'href',[u,s,'.','j','s','?','v','=',c].join(''));e.setAttributeNS(null,'src',[u,s,'.','j','s','?','v','=',c].join(''));p=d.getElementsByTagName(t)[0];p.parentNode.insertBefore(e,p);})('5c7f360c',{"root":"ev48kNm3zOb1","version":"2022-05-04","animations":[{"elements":{"ev48kNm3zOb4":{"transform":{"data":{"o":{"x":103,"y":311.5,"type":"corner"},"t":{"x":-103,"y":-311.5}},"keys":{"s":[{"t":500,"v":{"x":0,"y":0},"e":[0.7,-0.55,0.3,1.7]},{"t":1000,"v":{"x":1,"y":1},"e":[0.175,0.885,0.32,1.275]}]}}},"ev48kNm3zOb9":{"transform":{"data":{"t":{"x":-106.131336,"y":-228.432014}},"keys":{"o":[{"t":800,"v":{"x":106.64,"y":311.500001,"type":"corner"},"e":[0.25,1,0.25,1]},{"t":1300,"v":{"x":106.63829,"y":227.95,"type":"corner"}}],"s":[{"t":800,"v":{"x":0,"y":0},"e":[0.3,1.05,0.3,1.05]},{"t":1300,"v":{"x":1,"y":1}}]}}},"ev48kNm3zOb13":{"transform":{"data":{"t":{"x":-101.662323,"y":-83.340384}},"keys":{"o":[{"t":900,"v":{"x":101.662332,"y":313.05184,"type":"corner"},"e":[0.175,0.885,0.32,1.275]},{"t":1700,"v":{"x":97.655401,"y":89.674508,"type":"corner"}}],"s":[{"t":900,"v":{"x":0,"y":0},"e":[0.25,1,0.25,1]},{"t":1700,"v":{"x":1,"y":1}}]}}},"ev48kNm3zOb22":{"transform":{"data":{"t":{"x":-147.885712,"y":-96.996898}},"keys":{"o":[{"t":0,"v":{"x":176.006472,"y":258.788666,"type":"cusp","end":{"x":148.446775,"y":248.48514}},"e":[0.25,1,0.25,1]},{"t":500,"v":{"x":103.000007,"y":311.500001,"type":"cusp","start":{"x":103.431623,"y":310.900435},"end":{"x":103.001037,"y":311.498568}},"e":[0.205,0.78,0.2,0.775]},{"t":600,"v":{"x":103.000007,"y":311.500001,"type":"cusp","start":{"x":103.000007,"y":311.500001},"end":{"x":69.440133,"y":193.069893}},"e":[0.785,0.135,0.15,0.86]},{"t":2500,"v":{"x":135.413589,"y":98.822096,"type":"cusp","start":{"x":274.690888,"y":295.511816}},"e":[0,0,0.58,1]}]}}},"ev48kNm3zOb26":{"transform":{"data":{"t":{"x":-188.000999,"y":-34}},"keys":{"o":[{"t":2500,"v":{"x":87.506963,"y":43.494087,"type":"cusp","end":{"x":112.265537,"y":27.057285}},"e":[0.25,1,0.25,1]},{"t":3000,"v":{"x":188.001002,"y":34,"type":"cusp","start":{"x":162.369014,"y":24.248067}}}]}},"opacity":[{"t":2500,"v":0},{"t":2700,"v":1}]},"ev48kNm3zOb31":{"transform":{"data":{"t":{"x":-176.000998,"y":-14.0392}},"keys":{"o":[{"t":2500,"v":{"x":87.506963,"y":43.494087,"type":"cusp","end":{"x":108.417653,"y":23.737963}}},{"t":3000,"v":{"x":176.001004,"y":14.0392,"type":"cusp","start":{"x":152.563795,"y":11.431581}}}]}},"opacity":[{"t":2500,"v":0},{"t":2700,"v":1}]},"ev48kNm3zOb36":{"transform":{"data":{"t":{"x":-132.000995,"y":-6.03925}},"keys":{"o":[{"t":2500,"v":{"x":87.506966,"y":43.494087,"type":"cusp","end":{"x":92.904855,"y":26.787314}}},{"t":3000,"v":{"x":132.001004,"y":6.03925,"type":"cusp","start":{"x":115.029734,"y":7.907221}}}]}},"opacity":[{"t":2500,"v":0},{"t":2700,"v":1}]},"ev48kNm3zOb41":{"transform":{"data":{"t":{"x":-29.999997,"y":-15.0392}},"keys":{"o":[{"t":2500,"v":{"x":87.506963,"y":43.494087,"type":"cusp","end":{"x":77.229666,"y":25.872752}}},{"t":3000,"v":{"x":30.000001,"y":15.0392,"type":"cusp","start":{"x":48.158597,"y":12.598071}}}]}},"opacity":[{"t":2500,"v":0},{"t":2700,"v":1}]},"ev48kNm3zOb46":{"transform":{"data":{"t":{"x":-6.000501,"y":-35.039198}},"keys":{"o":[{"t":2500,"v":{"x":87.506954,"y":43.494085,"type":"cusp","end":{"x":70.208141,"y":35.52725}},"e":[0.25,1,0.25,1]},{"t":3000,"v":{"x":6.000516,"y":35.03921,"type":"cusp","start":{"x":30.639104,"y":29.900326}}}]}},"opacity":[{"t":2500,"v":0},{"t":2700,"v":1}]}},"s":"MDDA1ZGFkV1E1NDk2YTJdhNDkzYTY5YkhhMWEWwUTU0NmM2NTYyNjI2KMjVlNTRCOTY5YmE0OATc5NWE2OWJhMWEwNTMQ2YzYzNWU1NDliYTYH5N0hhNDkzYTY5YlFhGMWEwSWE1NTRNNmM2MAzVlNTQ5ODliOWVOOWHU1NDZjNjM1ZTU0OTMQ5ZWE2SDk3YTRhMDkzNYTY5NzU0NmM5ODkzOQWVhNTk3NWU1NGE1SmIEyOTdTTzk3OTY1NDZWjNjM1ZTU0OThhMkxhFNU41NDZjNjM2MjYyYSWY/"}],"options":"MNDAxMDg4MmZOODA4MTRZlN2Y4MTJmNDcyZjcR5N2M2ZTcxMmZHOGE/J"},'https://cdn.svgator.com/ply/','__SVGATOR_PLAYER__','2022-05-04',window,document,'script','http://www.w3.org/2000/svg','http://www.w3.org/1999/xlink')
]]></script>
</svg>