<svg width="195" height="88" viewBox="0 0 195 88" fill="none" xmlns="http://www.w3.org/2000/svg">
<path d="M7.89901 24.9417C8.51645 14.5995 17.1138 6.54571 27.4742 6.60408L167.401 7.3924C178.013 7.45219 186.629 15.9863 186.789 26.5967L187 40.5V54C187 64.7696 178.27 73.5 167.5 73.5H25.6989C14.4724 73.5 5.56451 64.0444 6.23356 52.8379L7.89901 24.9417Z" fill="#D9D9D9"/>
<path d="M37.702 32.6055C36 35.5 36 38 36.614 41.1157C43.3395 63.6427 108.518 73.1542 143.926 56.7345C155.201 51.5282 161.874 43.509 159.5 36C159 32.5 155.699 29.391 155 29.5C155 29.5 155 33.5 155.201 37.6115C155.596 45.1205 155.596 45.1205 151.937 48.5246C140.464 59.5378 110.694 65.4449 83.1981 62.0408C66.2854 59.9383 50.7574 54.4317 44.4275 48.2243C41.856 45.8214 41 43.81 41 35.5C41 30.6942 41 28 41 28C40.5055 28 38.8888 30.1025 37.702 32.6055Z" fill="black"/>
<path d="M25.1883 1.0047C20.3434 1.50705 15.0947 2.51175 13.3788 3.41598C9.94697 5.22444 5.40484 10.2479 3.89079 13.9653C0.458961 22.5053 -1.25695 57.8707 1.06458 71.836C1.87207 76.7591 2.67956 78.4671 5.50577 81.0793C7.42356 82.7873 10.6535 84.7967 12.8741 85.3995C19.0312 87.3084 119.059 88.8155 150.45 87.5093C164.581 86.9065 177.905 86.0023 179.924 85.3995C188.705 82.8877 192.137 76.96 193.853 61.789C197.083 32.8537 193.348 10.6498 184.466 5.12397C180.226 2.51175 169.368 0.5 162 0.5C158.776 0.5 155 0.5 155 0.5V4V8C155 8 159.292 8 163.5 8C185.029 11.6704 186 15 187 42.5C186.193 62.0916 186 65.5 177.703 69.4248C173.161 71.1327 46.6878 72.037 27.9136 70.4295C14.3882 69.2238 11.8648 68.2191 8.9376 62.1909C6.4142 57.2679 6.5 43.5 7.12075 31.5476C10 12 13.5 8.5 31 7C36.9488 7 155 8 155 8V4V0.5C155 0.5 31 0.5 25.1883 1.0047Z" fill="#194E66"/>
<path d="M37.3194 81.5H30.1213C29.7235 81.5 29.342 81.658 29.0607 81.9393C28.4749 82.5251 28.4749 83.4749 29.0607 84.0607C29.342 84.342 29.7235 84.5 30.1213 84.5H36.9296C37.5983 84.5 38.2228 84.1658 38.5937 83.6094L38.7778 83.3333C38.918 83.123 38.9533 82.8598 38.8733 82.62C38.6504 81.9511 38.0244 81.5 37.3194 81.5Z" fill="#053044"/>
<path d="M57.1779 82H44.7612C44.472 82 44.189 82.0836 43.9463 82.2406C43.0328 82.8317 43.0328 84.1683 43.9463 84.7594C44.189 84.9164 44.472 85 44.7612 85H56.6435C57.1636 85 57.6633 84.7974 58.0365 84.4352L58.5422 83.9444C58.8141 83.6804 58.8814 83.2697 58.7078 82.9328C58.4127 82.36 57.8223 82 57.1779 82Z" fill="#053044"/>
<path d="M30 78.5C17.6 78.9 10.8333 76.6667 9 75.5L6.71668 73.6733C6.57525 73.5602 6.46953 73.4086 6.41225 73.2368C6.20944 72.6283 6.66231 72 7.30366 72H7.39445C7.7893 72 8.17531 72.1169 8.50385 72.3359L11 74C15.8 76.4 21 76 30.5 76L71.4234 76.4991C71.4744 76.4997 71.505 76.5014 71.5555 76.5084C75.0758 76.9973 125.975 76.832 151.374 76.5016C151.46 76.5005 151.538 76.5106 151.622 76.5257C153.569 76.8744 163.613 76.3258 168.5 76C171.333 75.6667 177.4 74.8 179 74C180.6 73.2 181.333 73.3333 181.5 73.5C181.833 73.8333 182.3 74.7 181.5 75.5C180.7 76.3 178.5 76.8333 177.5 77C167.1 78.2 158.167 78.8333 155 79C137 80.2 91.8333 79.5 71.5 79L30 78.5Z" fill="#053044"/>
</svg>
